<svg width="62" height="62" viewBox="0 0 62 62" fill="none" xmlns="http://www.w3.org/2000/svg">
<circle cx="31" cy="31" r="31" fill="#FF9100"/>
<mask id="mask0_356_32563" style="mask-type:luminance" maskUnits="userSpaceOnUse" x="13" y="13" width="36" height="36">
<path d="M13.9023 13.9009H48.7472V48.4465H13.9023V13.9009Z" fill="white"/>
</mask>
<g mask="url(#mask0_356_32563)">
<path d="M47.7711 29.6495L32.6996 14.5794C32.4932 14.373 32.2482 14.2092 31.9785 14.0975C31.7088 13.9857 31.4197 13.9282 31.1278 13.9282C30.8359 13.9282 30.5468 13.9857 30.2771 14.0975C30.0074 14.2092 29.7624 14.373 29.556 14.5794L26.4264 17.7087L30.3957 21.6795C30.8623 21.5204 31.3642 21.4952 31.8444 21.6069C32.3246 21.7186 32.7639 21.9626 33.1124 22.3112C33.4627 22.6621 33.7072 23.1043 33.8181 23.5875C33.929 24.0707 33.9018 24.5754 33.7396 25.0439L37.5657 28.8711C38.0341 28.7083 38.5389 28.6808 39.0222 28.7918C39.5055 28.9028 39.9477 29.1478 40.298 29.4987C40.5439 29.7441 40.739 30.0356 40.8721 30.3565C41.0052 30.6774 41.0737 31.0214 41.0737 31.3688C41.0737 31.7162 41.0052 32.0602 40.8721 32.3811C40.739 32.7019 40.5439 32.9934 40.298 33.2389C40.0525 33.4848 39.7609 33.6799 39.4399 33.813C39.1188 33.9461 38.7747 34.0146 38.4272 34.0146C38.0797 34.0146 37.7356 33.9461 37.4146 33.813C37.0935 33.6799 36.8019 33.4848 36.5564 33.2389C36.1875 32.8696 35.9361 32.3995 35.8338 31.8877C35.7314 31.376 35.7826 30.8454 35.9811 30.3626L32.4125 26.7941V36.1844C32.6715 36.3117 32.908 36.4806 33.1124 36.6843C33.6085 37.1806 33.8871 37.8536 33.8871 38.5553C33.8871 39.2571 33.6085 39.93 33.1124 40.4264C32.0784 41.4588 30.4032 41.4588 29.3723 40.4264C29.1263 40.1808 28.9311 39.8892 28.798 39.5681C28.6648 39.2471 28.5963 38.9029 28.5963 38.5553C28.5963 38.2078 28.6648 37.8636 28.798 37.5426C28.9311 37.2215 29.1263 36.9299 29.3723 36.6843C29.6192 36.4359 29.9135 36.2398 30.2377 36.1075V26.6297C29.9135 26.4974 29.6192 26.3012 29.3723 26.0529C29.0009 25.6817 28.7483 25.2086 28.6466 24.6935C28.5449 24.1784 28.5987 23.6448 28.8011 23.1604L24.8879 19.2456L14.5538 29.5798C14.3472 29.7862 14.1834 30.0312 14.0716 30.301C13.9599 30.5707 13.9023 30.8598 13.9023 31.1518C13.9023 31.4437 13.9599 31.7328 14.0716 32.0026C14.1834 32.2723 14.3472 32.5174 14.5538 32.7238L29.6253 47.7953C29.8317 48.0017 30.0767 48.1655 30.3464 48.2773C30.6161 48.389 30.9052 48.4465 31.1971 48.4465C31.489 48.4465 31.7781 48.389 32.0478 48.2773C32.3175 48.1655 32.5625 48.0017 32.7689 47.7953L47.7711 32.795C48.1882 32.3778 48.4225 31.8121 48.4225 31.2222C48.4225 30.6323 48.1882 30.0666 47.7711 29.6495Z" fill="black"/>
</g>
</svg>
