<svg width="62" height="62" viewBox="0 0 62 62" fill="none" xmlns="http://www.w3.org/2000/svg">
<circle cx="31" cy="31" r="31" fill="#E50082"/>
<g clip-path="url(#clip0_356_32575)">
<path d="M30.8684 35.8799C33.5938 35.8799 35.8032 33.6705 35.8032 30.9451C35.8032 28.2196 33.5938 26.0103 30.8684 26.0103C28.143 26.0103 25.9336 28.2196 25.9336 30.9451C25.9336 33.6705 28.143 35.8799 30.8684 35.8799Z" fill="black"/>
<path d="M30.8662 41.0557C45.4905 41.0557 57.3457 36.5291 57.3457 30.9453C57.3457 25.3615 45.4905 20.835 30.8662 20.835C16.242 20.835 4.38672 25.3615 4.38672 30.9453C4.38672 36.5291 16.242 41.0557 30.8662 41.0557Z" stroke="black"/>
<path d="M22.1109 36.0003C29.423 48.6652 39.2708 56.6689 44.1065 53.877C48.9422 51.0851 46.9347 38.5549 39.6226 25.8899C32.3105 13.225 22.4627 5.22129 17.627 8.01319C12.7913 10.8051 14.7988 23.3353 22.1109 36.0003Z" stroke="black"/>
<path d="M22.1119 25.8899C14.7998 38.5549 12.7922 51.0851 17.6279 53.877C22.4637 56.6689 32.3114 48.6652 39.6235 36.0003C46.9356 23.3353 48.9432 10.8051 44.1075 8.01318C39.2717 5.22128 29.424 13.225 22.1119 25.8899Z" stroke="black"/>
</g>
<defs>
<clipPath id="clip0_356_32575">
<rect width="55.3663" height="49.2603" fill="white" transform="translate(3.18359 6.31494)"/>
</clipPath>
</defs>
</svg>
