<svg width="62" height="62" viewBox="0 0 62 62" fill="none" xmlns="http://www.w3.org/2000/svg">
<circle cx="31" cy="31" r="31" fill="#00A03C"/>
<path fill-rule="evenodd" clip-rule="evenodd" d="M40.8127 33.3459L45.8488 28.2697L34.7312 17.1597L30.7403 21.1823L27.1294 17.5428L16.2969 28.4613L21.4281 33.6332L20.2878 34.7825C19.7417 35.3068 19.4326 36.0337 19.4326 36.7939C19.4326 37.554 19.7417 38.2809 20.2878 38.8052C20.8079 39.3556 21.5291 39.6671 22.2833 39.6671C22.2793 40.4561 22.587 41.2143 23.1385 41.7742C23.719 42.2785 24.4627 42.5511 25.229 42.5404C25.2184 43.3128 25.4888 44.0624 25.9892 44.6475C26.5447 45.2034 27.2969 45.5136 28.0797 45.5095C28.8386 45.534 29.5693 45.2183 30.0751 44.6475L31.2154 43.4982L32.0706 44.3602C32.6127 44.8779 33.3203 45.1835 34.0661 45.2222C34.8431 45.1977 35.5853 44.8917 36.1566 44.3602C36.7081 43.8003 37.0158 43.0421 37.0118 42.2531C37.7659 42.2531 38.4871 41.9416 39.0072 41.3911C39.5735 40.8813 39.8867 40.1448 39.8624 39.3798C41.4159 39.3301 42.6637 38.0723 42.7131 36.5065C42.7171 35.7175 42.4094 34.9594 41.8579 34.3994L40.8127 33.3459ZM34.7312 19.8414L43.0932 28.2697L39.7674 31.7177L39.4823 32.005L32.6407 25.1091L30.3602 27.4078C29.9273 27.798 29.2727 27.798 28.8398 27.4078C28.6251 27.1921 28.5045 26.8992 28.5045 26.5937C28.5045 26.2881 28.6251 25.9952 28.8398 25.7796L34.7312 19.8414ZM23.0435 37.4643C22.642 37.8414 22.0196 37.8414 21.6181 37.4643C21.256 37.0919 21.256 36.4958 21.6181 36.1234L22.7584 34.9741L24.1837 36.315L23.0435 37.4643ZM25.8941 40.3376C25.4927 40.7147 24.8702 40.7147 24.4688 40.3376C24.28 40.1676 24.1756 39.9221 24.1837 39.6671C24.1965 39.4166 24.2976 39.1789 24.4688 38.9967L25.6091 37.8474L27.0344 39.284L25.8941 40.3376ZM28.7448 43.3067C28.3753 43.6717 27.784 43.6717 27.4145 43.3067C27.2209 43.1004 27.1181 42.8241 27.1294 42.5404C27.1422 42.2899 27.2433 42.0521 27.4145 41.87L28.4597 40.7207L29.8851 42.1573L28.7448 43.3067ZM40.5276 37.177C40.1581 37.542 39.5668 37.542 39.1973 37.177L36.0615 34.0163L34.5412 35.5488L37.6769 38.7094C38.0391 39.0818 38.0391 39.6778 37.6769 40.0503C37.4962 40.2228 37.2603 40.3247 37.0118 40.3376C36.7303 40.349 36.4562 40.2454 36.2516 40.0503L33.2109 36.9854L31.6905 38.4221L34.8262 41.5827C35.2004 41.9873 35.2004 42.6147 34.8262 43.0193C34.6216 43.2144 34.3475 43.318 34.0661 43.3067C33.8175 43.2938 33.5816 43.1919 33.4009 43.0193L18.9575 28.4613L27.1294 20.2245L29.41 22.5232L27.5095 24.4387C26.9226 24.9994 26.5902 25.7786 26.5902 26.5937C26.5902 27.4087 26.9226 28.1879 27.5095 28.7486C28.7139 29.88 30.5812 29.88 31.7855 28.7486L32.6407 27.8866L40.5276 35.8361C40.8898 36.2085 40.8898 36.8045 40.5276 37.177Z" fill="white"/>
</svg>
