<svg width="62" height="62" viewBox="0 0 62 62" fill="none" xmlns="http://www.w3.org/2000/svg">
<circle cx="31" cy="31" r="31" fill="#FFE600"/>
<path fill-rule="evenodd" clip-rule="evenodd" d="M26.789 48.2524H10.2422V46.8625C10.2422 42.693 12.5587 41.3031 15.7578 41.3031H21.2734C24.4725 41.3031 26.789 42.693 26.789 46.8625V48.2524ZM18.5156 39.9133C20.7878 39.8834 22.6226 38.034 22.6523 35.7438C22.6523 33.441 20.8003 31.5742 18.5156 31.5742C16.231 31.5742 14.3789 33.441 14.3789 35.7438C14.4086 38.034 16.2434 39.8834 18.5156 39.9133Z" fill="black"/>
<path fill-rule="evenodd" clip-rule="evenodd" d="M52.0039 48.2524H35.457V46.8625C35.457 42.693 37.7736 41.3031 40.9726 41.3031H46.4883C49.6873 41.3031 52.0039 42.693 52.0039 46.8625V48.2524ZM43.7305 39.9133C46.0027 39.8834 47.8375 38.034 47.8672 35.7438C47.8672 33.441 46.0151 31.5742 43.7305 31.5742C41.4458 31.5742 39.5937 33.441 39.5937 35.7438C39.6234 38.034 41.4582 39.8834 43.7305 39.9133Z" fill="black"/>
<path fill-rule="evenodd" clip-rule="evenodd" d="M39.3945 25.6996H22.8477V24.3098C22.8477 20.1403 25.1642 18.7504 28.3633 18.7504H33.8789C37.0779 18.7504 39.3945 20.1403 39.3945 24.3098V25.6996ZM31.1211 17.3606C33.3933 17.3306 35.2281 15.4813 35.2578 13.191C35.2578 10.8883 33.4057 9.02148 31.1211 9.02148C28.8364 9.02148 26.9844 10.8883 26.9844 13.191C27.0141 15.4813 28.8489 17.3306 31.1211 17.3606Z" fill="black"/>
</svg>
