<svg width="62" height="62" viewBox="0 0 62 62" fill="none" xmlns="http://www.w3.org/2000/svg">
<circle cx="31" cy="31" r="31" fill="#009DE6"/>
<path d="M17.1194 18.524L21.5896 33.7039L26.0592 18.524H38.1776V20.033L33.6146 27.8848C35.2176 28.3981 36.4299 29.3327 37.2517 30.6871C38.074 32.0422 38.4855 33.6323 38.4855 35.4591C38.4855 37.718 37.8836 39.6165 36.6811 41.1555C35.4786 42.6944 33.922 43.4644 32.0111 43.4644C30.5721 43.4644 29.319 43.0083 28.251 42.0948C27.1821 41.1813 26.3912 39.9449 25.8776 38.3843L28.4047 37.3375C28.7748 38.2819 29.2631 39.0261 29.8695 39.5693C30.4756 40.1134 31.1899 40.3857 32.0116 40.3857C32.874 40.3857 33.6043 39.9033 34.2002 38.9389C34.7966 37.974 35.0948 36.8148 35.0948 35.4588C35.0948 33.9601 34.776 32.8001 34.1396 31.9793C33.3984 31.0149 32.2373 30.5319 30.6552 30.5319H29.4229V29.0543L33.738 21.6025H28.5296L28.2333 22.1066L21.8975 43.4605H21.5893L16.9649 28.0046L12.3416 43.4605H12.0337L4.63672 18.523H7.87327L12.3429 33.7029L15.3643 23.4812L13.885 18.5235H17.1208V18.5225L17.1194 18.524Z" fill="black"/>
<path d="M54.9973 18.5239C54.3619 18.5239 53.7914 18.7528 53.3588 19.1915C52.9 19.6571 52.6445 20.2583 52.6445 20.8801C52.6445 21.5018 52.8876 22.078 53.3329 22.5302C53.7856 22.9884 54.3685 23.2375 54.9976 23.2375C55.613 23.2375 56.2104 22.9886 56.6747 22.5375C57.12 22.1054 57.3631 21.5295 57.3631 20.8814C57.3631 20.2528 57.1139 19.6639 56.6818 19.2252C56.2336 18.7657 55.643 18.5239 54.9997 18.5239H54.9973ZM57.0485 20.9003C57.0485 21.4439 56.8379 21.9482 56.4527 22.3205C56.0459 22.714 55.5412 22.9233 54.9842 22.9233C54.4605 22.9233 53.943 22.7079 53.5557 22.3147C53.1695 21.9213 52.9527 21.4178 52.9527 20.8814C52.9527 20.3444 53.1758 19.8209 53.5752 19.4156C53.9485 19.0356 54.4526 18.8334 55.0031 18.8334C55.5671 18.8334 56.0712 19.0438 56.4645 19.4419C56.8468 19.8206 57.0498 20.3302 57.0498 20.9003H57.0485ZM55.0632 19.4991H54.0545V22.1702H54.5592V21.0315H55.0577L55.6016 22.1702H56.165L55.5681 20.9533C55.9544 20.874 56.178 20.6128 56.178 20.2333C56.1806 19.7487 55.8115 19.4991 55.0654 19.4991H55.0632ZM54.971 19.8267C55.4426 19.8267 55.6588 19.9578 55.6588 20.2849C55.6588 20.5985 55.4426 20.7107 54.9831 20.7107H54.5568V19.8267H54.971Z" fill="black"/>
<path d="M51.0293 18.3843L51.5534 21.5681L49.6976 25.1151C49.6976 25.1151 48.9855 23.6101 47.8017 22.7779C46.8049 22.0763 46.155 21.9236 45.1389 22.133C43.8341 22.4018 42.3545 23.96 41.7088 25.8814C40.9363 28.1796 40.9286 29.2925 40.9012 30.314C40.858 31.9528 41.1164 32.92 41.1164 32.92C41.1164 32.92 39.9893 30.838 40.0001 27.7885C40.0072 25.6112 40.3502 23.6372 41.3584 21.6895C42.2456 19.9767 43.5643 18.9486 44.7349 18.8277C45.9451 18.7032 46.9008 19.2854 47.6404 19.9156C48.4157 20.5782 49.2001 22.025 49.2001 22.025L51.0246 18.3843H51.0293Z" fill="black"/>
<path d="M51.2593 36.3987C51.2593 36.3987 50.4391 37.8637 49.9281 38.4278C49.4169 38.9926 48.5023 39.9862 47.3731 40.4837C46.2439 40.9806 45.6518 41.0736 44.5352 40.9672C43.4202 40.8603 42.3838 40.2153 42.0208 39.9462C41.6577 39.6771 40.7294 38.8852 40.2045 38.146C39.6793 37.4068 38.8594 35.9297 38.8594 35.9297C38.8594 35.9297 39.316 37.4105 39.6029 38.0391C39.7671 38.4012 40.2728 39.5075 40.9912 40.4702C41.6612 41.3682 42.962 42.9149 44.9389 43.264C46.9157 43.6138 48.274 42.7266 48.6104 42.5122C48.9461 42.2978 49.6547 41.7048 50.1037 41.2247C50.5717 40.7254 51.0152 40.0871 51.2598 39.7044C51.4396 39.4245 51.7315 38.8578 51.7315 38.8578L51.2596 36.4005L51.2593 36.3987Z" fill="black"/>
</svg>
