<svg xmlns="http://www.w3.org/2000/svg" viewBox="0 0 738.635 126.65"><g fill="#fff" font-family="Ubuntu" font-size="135" font-weight="700" letter-spacing="0" style="line-height:125%" word-spacing="0"><path d="M36.22 374.766q2.97-3.24 6.075-6.75 3.24-3.51 6.21-6.885 2.97-3.51 5.535-6.615 2.7-3.105 4.59-5.4h23.895a905 905 0 0 1-14.04 15.795q-6.75 7.425-14.85 15.39 4.05 3.645 8.37 8.775 4.32 4.995 8.37 10.395t7.425 10.8 5.67 9.855H60.385a211 211 0 0 0-4.995-7.695q-2.7-4.32-5.805-8.505a98 98 0 0 0-6.615-8.235q-3.375-3.915-6.75-6.615v31.05H16.105v-101.52l20.115-3.24zM153.449 417.696q-5.13 1.485-13.23 2.7-8.1 1.35-17.01 1.35-9.045 0-15.12-2.43-5.94-2.43-9.45-6.75-3.51-4.455-4.995-10.53t-1.485-13.365v-39.555h20.115v37.125q0 9.72 2.565 14.04t9.585 4.32q2.16 0 4.59-.135 2.43-.27 4.32-.54v-54.81h20.115zM217.958 384.08q0-19.44-14.31-19.44-3.105 0-6.21.81-2.97.81-4.86 2.026v36.585q1.485.27 3.78.54 2.295.135 4.995.135 8.235 0 12.42-5.67 4.184-5.67 4.185-14.985m20.52.54q0 8.505-2.565 15.39-2.43 6.885-7.155 11.745t-11.61 7.56q-6.885 2.565-15.66 2.565-3.645 0-7.695-.405-3.915-.27-7.83-.81-3.78-.54-7.29-1.215-3.51-.81-6.21-1.62v-99.225l20.115-3.24v35.37q3.375-1.485 7.02-2.295t7.83-.81q7.56 0 13.365 2.7 5.805 2.565 9.72 7.425t5.94 11.745q2.024 6.75 2.025 15.12M250.562 385.16q0-9.45 2.835-16.47 2.97-7.155 7.695-11.88 4.725-4.724 10.8-7.154 6.21-2.43 12.69-2.43 15.12 0 23.895 9.315 8.775 9.18 8.775 27.135 0 1.755-.135 3.915-.135 2.025-.27 3.645h-45.63q.675 6.21 5.805 9.855t13.77 3.645q5.535 0 10.8-.945 5.4-1.08 8.775-2.565l2.7 16.335q-1.62.81-4.32 1.62t-6.075 1.35q-3.24.675-7.02 1.08t-7.56.405q-9.585 0-16.74-2.835-7.02-2.835-11.745-7.695-4.59-4.995-6.885-11.745-2.16-6.75-2.16-14.58m47.25-7.695a18.9 18.9 0 0 0-.945-4.995 11.1 11.1 0 0 0-2.295-4.32q-1.485-1.89-3.915-3.105-2.295-1.215-5.805-1.215-3.375 0-5.805 1.215-2.43 1.08-4.05 2.97t-2.565 4.455a31 31 0 0 0-1.215 4.995zM375.57 366.936q-2.7-.675-6.345-1.35-3.645-.81-7.83-.81-1.89 0-4.59.405-2.565.27-3.915.675v54.27h-20.115v-67.23q5.4-1.89 12.69-3.51 7.425-1.755 16.47-1.755 1.62 0 3.915.27 2.295.135 4.59.54 2.295.27 4.59.81 2.295.405 3.915 1.08zM389.728 351.546q5.13-1.485 13.23-2.7 8.1-1.35 17.01-1.35 9.045 0 14.985 2.43 6.075 2.295 9.585 6.615t4.995 10.26 1.485 13.23v40.095h-20.115V382.46q0-9.72-2.565-13.77t-9.585-4.05q-2.16 0-4.59.27-2.43.135-4.32.405v54.81h-20.115zM465.982 385.16q0-9.45 2.835-16.47 2.97-7.155 7.695-11.88 4.725-4.724 10.8-7.154 6.21-2.43 12.69-2.43 15.12 0 23.895 9.315 8.775 9.18 8.775 27.135 0 1.755-.135 3.915-.135 2.025-.27 3.645h-45.63q.675 6.21 5.805 9.855t13.77 3.645q5.535 0 10.8-.945 5.4-1.08 8.775-2.565l2.7 16.335q-1.62.81-4.32 1.62t-6.075 1.35q-3.24.675-7.02 1.08t-7.56.405q-9.585 0-16.74-2.835-7.02-2.835-11.745-7.695-4.59-4.995-6.885-11.745-2.16-6.75-2.16-14.58m47.25-7.695a18.9 18.9 0 0 0-.945-4.995 11.1 11.1 0 0 0-2.295-4.32q-1.485-1.89-3.915-3.105-2.295-1.215-5.805-1.215-3.375 0-5.805 1.215-2.43 1.08-4.05 2.97t-2.565 4.455a31 31 0 0 0-1.215 4.995zM547.52 331.43l20.115-3.24v20.926H591.8v16.74h-24.165v24.975q0 6.345 2.16 10.125 2.295 3.78 9.045 3.78 3.24 0 6.615-.54 3.51-.675 6.345-1.755l2.835 15.66q-3.645 1.485-8.1 2.565t-10.935 1.08q-8.235 0-13.635-2.16-5.4-2.295-8.64-6.21-3.24-4.05-4.59-9.72-1.215-5.67-1.215-12.555zM602.037 385.16q0-9.45 2.835-16.47 2.97-7.155 7.695-11.88 4.725-4.724 10.8-7.154 6.21-2.43 12.69-2.43 15.12 0 23.895 9.315 8.775 9.18 8.775 27.135 0 1.755-.135 3.915-.135 2.025-.27 3.645h-45.63q.675 6.21 5.805 9.855t13.77 3.645q5.535 0 10.8-.945 5.4-1.08 8.775-2.565l2.7 16.335q-1.62.81-4.32 1.62t-6.075 1.35q-3.24.675-7.02 1.08t-7.56.405q-9.585 0-16.74-2.835-7.02-2.835-11.745-7.695-4.59-4.995-6.885-11.745-2.16-6.75-2.16-14.58m47.25-7.695a18.9 18.9 0 0 0-.945-4.995 11.1 11.1 0 0 0-2.295-4.32q-1.485-1.89-3.915-3.105-2.295-1.215-5.805-1.215-3.375 0-5.805 1.215-2.43 1.08-4.05 2.97t-2.565 4.455a31 31 0 0 0-1.215 4.995zM704.635 405.68q5.535 0 7.83-1.08t2.295-4.184q0-2.43-2.97-4.185-2.97-1.89-9.045-4.185-4.725-1.755-8.64-3.645-3.78-1.89-6.48-4.455-2.7-2.7-4.185-6.345t-1.485-8.775q0-9.99 7.425-15.795t20.385-5.805q6.48 0 12.42 1.215 5.94 1.08 9.45 2.43l-3.51 15.66q-3.51-1.215-7.695-2.16-4.05-.945-9.18-.945-9.45 0-9.45 5.265 0 1.215.405 2.16t1.62 1.89q1.215.81 3.24 1.89 2.16.945 5.4 2.16 6.615 2.43 10.935 4.86 4.32 2.295 6.75 5.13 2.565 2.7 3.51 6.075 1.08 3.375 1.08 7.83 0 10.53-7.965 15.93-7.83 5.4-22.275 5.4-9.45 0-15.795-1.62-6.21-1.62-8.64-2.7l3.375-16.335a71 71 0 0 0 10.53 3.24q5.4 1.08 10.665 1.08" style="-inkscape-font-specification:Ubuntu Bold" transform="translate(-6.105 -305.366)"/></g></svg>